<svg width="25" height="24" viewBox="0 0 25 24" fill="none" xmlns="http://www.w3.org/2000/svg">
    <path d="M12.7433 23.0328L10.9638 21.4255C8.93554 19.5886 7.46219 18.2301 6.54374 17.3499C5.62529 16.4697 4.59204 15.3791 3.44398 14.0779C2.33418 12.7768 1.56881 11.6096 1.14785 10.5764C0.726896 9.50484 0.516418 8.41418 0.516418 7.30439C0.516418 5.42922 1.14785 3.84107 2.41072 2.53993C3.71186 1.23879 5.31914 0.588226 7.23258 0.588226C9.45216 0.588226 11.2891 1.44927 12.7433 3.17136C14.1975 1.44927 16.0344 0.588226 18.254 0.588226C20.1674 0.588226 21.7556 1.23879 23.0184 2.53993C24.3196 3.84107 24.9701 5.42922 24.9701 7.30439C24.9701 8.79687 24.4726 10.3467 23.4776 11.954C22.4827 13.5613 21.392 14.9581 20.2057 16.1445C19.0576 17.3308 17.1633 19.1103 14.5228 21.4829L12.7433 23.0328Z" fill="#FF0000"/>
</svg>
