<svg width="23" height="25" viewBox="0 0 23 25" fill="none" xmlns="http://www.w3.org/2000/svg">
    <path d="M19.0588 17.6037C20.0538 17.6037 20.8957 17.9672 21.5845 18.6943C22.2734 19.3832 22.6178 20.206 22.6178 21.1627C22.6178 22.1577 22.2542 23.0187 21.5271 23.7458C20.8383 24.4347 20.0155 24.7791 19.0588 24.7791C18.1021 24.7791 17.2602 24.4347 16.5331 23.7458C15.8442 23.0187 15.4998 22.1577 15.4998 21.1627C15.4998 20.78 15.5189 20.5121 15.5572 20.359L6.88935 15.3076C6.16225 15.9581 5.32033 16.2834 4.36362 16.2834C3.36863 16.2834 2.50758 15.9199 1.78048 15.1928C1.05337 14.4657 0.689819 13.6046 0.689819 12.6096C0.689819 11.6146 1.05337 10.7536 1.78048 10.0265C2.50758 9.29938 3.36863 8.93582 4.36362 8.93582C5.32033 8.93582 6.16225 9.26111 6.88935 9.91168L15.4998 4.91761C15.4233 4.53492 15.385 4.24791 15.385 4.05656C15.385 3.06158 15.7486 2.20053 16.4757 1.47343C17.2028 0.74632 18.0638 0.382767 19.0588 0.382767C20.0538 0.382767 20.9148 0.74632 21.6419 1.47343C22.369 2.20053 22.7326 3.06158 22.7326 4.05656C22.7326 5.05155 22.369 5.9126 21.6419 6.6397C20.9148 7.36681 20.0538 7.73036 19.0588 7.73036C18.1404 7.73036 17.2984 7.38594 16.5331 6.6971L7.92261 11.7486C7.99914 12.1313 8.03741 12.4183 8.03741 12.6096C8.03741 12.801 7.99914 13.088 7.92261 13.4707L16.6479 18.5221C17.3367 17.9098 18.1404 17.6037 19.0588 17.6037Z" fill="#00FF00"/>
</svg>
